<svg xmlns="http://www.w3.org/2000/svg" xmlns:xlink="http://www.w3.org/1999/xlink" width="1920" zoomAndPan="magnify" viewBox="0 0 1440 809.999993" height="1080" preserveAspectRatio="xMidYMid meet" version="1.0"><defs><g/><clipPath id="4a3346378f"><path d="M 469.894531 154.894531 L 970.105469 154.894531 L 970.105469 655.105469 L 469.894531 655.105469 Z M 469.894531 154.894531 " clip-rule="nonzero"/></clipPath><clipPath id="a505a0f891"><path d="M 720 154.894531 C 581.871094 154.894531 469.894531 266.871094 469.894531 405 C 469.894531 543.128906 581.871094 655.105469 720 655.105469 C 858.128906 655.105469 970.105469 543.128906 970.105469 405 C 970.105469 266.871094 858.128906 154.894531 720 154.894531 Z M 720 154.894531 " clip-rule="nonzero"/></clipPath><clipPath id="717b71eedd"><path d="M 469.894531 154.894531 L 970.097656 154.894531 L 970.097656 655.097656 L 469.894531 655.097656 Z M 469.894531 154.894531 " clip-rule="nonzero"/></clipPath><clipPath id="20019b6f56"><path d="M 719.996094 154.894531 C 581.867188 154.894531 469.894531 266.867188 469.894531 404.996094 C 469.894531 543.125 581.867188 655.097656 719.996094 655.097656 C 858.125 655.097656 970.097656 543.125 970.097656 404.996094 C 970.097656 266.867188 858.125 154.894531 719.996094 154.894531 Z M 719.996094 154.894531 " clip-rule="nonzero"/></clipPath><clipPath id="fedcc8943e"><path d="M 695 379 L 754 379 L 754 418 L 695 418 Z M 695 379 " clip-rule="nonzero"/></clipPath><clipPath id="4c65d71ae0"><path d="M 702.367188 379.609375 L 753.363281 403.847656 L 746.8125 417.632812 L 695.8125 393.394531 Z M 702.367188 379.609375 " clip-rule="nonzero"/></clipPath><clipPath id="63bb770454"><path d="M 702.367188 379.609375 L 753.324219 403.828125 L 746.773438 417.613281 L 695.8125 393.394531 Z M 702.367188 379.609375 " clip-rule="nonzero"/></clipPath><clipPath id="464847fda4"><path d="M 703 381 L 745 381 L 745 416 L 703 416 Z M 703 381 " clip-rule="nonzero"/></clipPath><clipPath id="76a17e11fc"><path d="M 712.429688 381.84375 L 744.996094 397.320312 L 736.25 415.726562 L 703.679688 400.246094 Z M 712.429688 381.84375 " clip-rule="nonzero"/></clipPath><clipPath id="c0e40bd69e"><path d="M 712.429688 381.84375 L 744.984375 397.3125 L 736.234375 415.71875 L 703.679688 400.246094 Z M 712.429688 381.84375 " clip-rule="nonzero"/></clipPath><clipPath id="ef7e00c1a2"><path d="M 704 398 L 711 398 L 711 404 L 704 404 Z M 704 398 " clip-rule="nonzero"/></clipPath><clipPath id="a24feb057a"><path d="M 705.894531 398.898438 L 710.785156 400.167969 L 709.84375 403.796875 L 704.949219 402.527344 Z M 705.894531 398.898438 " clip-rule="nonzero"/></clipPath><clipPath id="3caaa58c1e"><path d="M 705.894531 398.898438 L 710.78125 400.167969 L 709.835938 403.796875 L 704.949219 402.527344 Z M 705.894531 398.898438 " clip-rule="nonzero"/></clipPath><clipPath id="75edd02098"><path d="M 707 388 L 719 388 L 719 400 L 707 400 Z M 707 388 " clip-rule="nonzero"/></clipPath><clipPath id="ed93e35486"><path d="M 713.234375 388.507812 L 718.308594 392.78125 L 712.402344 399.796875 L 707.328125 395.527344 Z M 713.234375 388.507812 " clip-rule="nonzero"/></clipPath><clipPath id="81104ea5b9"><path d="M 713.234375 388.507812 L 718.308594 392.78125 L 712.414062 399.78125 L 707.339844 395.511719 Z M 713.234375 388.507812 " clip-rule="nonzero"/></clipPath><clipPath id="4cc12a6cc0"><path d="M 710 377 L 722 377 L 722 389 L 710 389 Z M 710 377 " clip-rule="nonzero"/></clipPath><clipPath id="4f53390e59"><path d="M 710.949219 380.789062 L 716.605469 377.316406 L 721.402344 385.136719 L 715.75 388.605469 Z M 710.949219 380.789062 " clip-rule="nonzero"/></clipPath><clipPath id="2fff9c03dc"><path d="M 710.949219 380.789062 L 716.605469 377.316406 L 721.390625 385.121094 L 715.738281 388.589844 Z M 710.949219 380.789062 " clip-rule="nonzero"/></clipPath><clipPath id="2c71383c4b"><path d="M 719 389 L 726 389 L 726 395 L 719 395 Z M 719 389 " clip-rule="nonzero"/></clipPath><clipPath id="0a910df691"><path d="M 720.914062 389.25 L 725.804688 390.519531 L 724.863281 394.148438 L 719.972656 392.878906 Z M 720.914062 389.25 " clip-rule="nonzero"/></clipPath><clipPath id="3b74c39bda"><path d="M 720.914062 389.25 L 725.800781 390.519531 L 724.859375 394.148438 L 719.972656 392.878906 Z M 720.914062 389.25 " clip-rule="nonzero"/></clipPath><clipPath id="c00641efd7"><path d="M 718 395 L 732 395 L 732 405 L 718 405 Z M 718 395 " clip-rule="nonzero"/></clipPath><clipPath id="499d733ec3"><path d="M 719.847656 395.984375 L 731.808594 399.09375 L 730.273438 405.003906 L 718.308594 401.898438 Z M 719.847656 395.984375 " clip-rule="nonzero"/></clipPath><clipPath id="c47b955679"><path d="M 719.847656 395.984375 L 731.789062 399.085938 L 730.253906 405 L 718.308594 401.898438 Z M 719.847656 395.984375 " clip-rule="nonzero"/></clipPath><clipPath id="2f40c331bc"><path d="M 712 401 L 718 401 L 718 408 L 712 408 Z M 712 401 " clip-rule="nonzero"/></clipPath><clipPath id="fe4dcdb2cd"><path d="M 712.019531 403.308594 L 715.214844 401.347656 L 717.910156 405.742188 L 714.714844 407.703125 Z M 712.019531 403.308594 " clip-rule="nonzero"/></clipPath><clipPath id="c54e2be6c9"><path d="M 712.019531 403.308594 L 715.214844 401.347656 L 717.90625 405.734375 L 714.710938 407.695312 Z M 712.019531 403.308594 " clip-rule="nonzero"/></clipPath><clipPath id="c0cc394b13"><path d="M 718 403 L 728 403 L 728 413 L 718 413 Z M 718 403 " clip-rule="nonzero"/></clipPath><clipPath id="069a527df0"><path d="M 718.3125 408.964844 L 720.738281 403.792969 L 727.28125 406.863281 L 724.855469 412.03125 Z M 718.3125 408.964844 " clip-rule="nonzero"/></clipPath><clipPath id="16dd7ff40a"><path d="M 718.3125 408.964844 L 720.738281 403.792969 L 727.265625 406.855469 L 724.839844 412.027344 Z M 718.3125 408.964844 " clip-rule="nonzero"/></clipPath><clipPath id="ee837b094a"><path d="M 728 400 L 740 400 L 740 413 L 728 413 Z M 728 400 " clip-rule="nonzero"/></clipPath><clipPath id="206305494d"><path d="M 734.859375 400.753906 L 739.933594 405.027344 L 734.027344 412.042969 L 728.953125 407.773438 Z M 734.859375 400.753906 " clip-rule="nonzero"/></clipPath><clipPath id="28a8caabf5"><path d="M 734.859375 400.753906 L 739.933594 405.027344 L 734.039062 412.027344 L 728.964844 407.757812 Z M 734.859375 400.753906 " clip-rule="nonzero"/></clipPath><clipPath id="b7d2205489"><path d="M 726 410 L 732 410 L 732 416 L 726 416 Z M 726 410 " clip-rule="nonzero"/></clipPath><clipPath id="aae8c5544e"><path d="M 726.992188 410.820312 L 731.886719 412.089844 L 730.941406 415.722656 L 726.050781 414.449219 Z M 726.992188 410.820312 " clip-rule="nonzero"/></clipPath><clipPath id="d1bb892498"><path d="M 726.992188 410.820312 L 731.878906 412.089844 L 730.9375 415.71875 L 726.050781 414.449219 Z M 726.992188 410.820312 " clip-rule="nonzero"/></clipPath><clipPath id="5b016a668e"><path d="M 727 390 L 735 390 L 735 396 L 727 396 Z M 727 390 " clip-rule="nonzero"/></clipPath><clipPath id="6c10084a86"><path d="M 727.582031 392.320312 L 733.648438 390.988281 L 734.453125 394.652344 L 728.386719 395.984375 Z M 727.582031 392.320312 " clip-rule="nonzero"/></clipPath><clipPath id="814c9305ad"><path d="M 727.582031 392.320312 L 733.644531 390.988281 L 734.449219 394.652344 L 728.386719 395.984375 Z M 727.582031 392.320312 " clip-rule="nonzero"/></clipPath><clipPath id="a3569fef4c"><path d="M 704 390 L 711 390 L 711 398 L 704 398 Z M 704 390 " clip-rule="nonzero"/></clipPath><clipPath id="e6b44c5c73"><path d="M 704.398438 392.953125 L 707.59375 390.988281 L 710.289062 395.382812 L 707.09375 397.347656 Z M 704.398438 392.953125 " clip-rule="nonzero"/></clipPath><clipPath id="53031c3eaa"><path d="M 704.398438 392.953125 L 707.59375 390.988281 L 710.285156 395.378906 L 707.089844 397.339844 Z M 704.398438 392.953125 " clip-rule="nonzero"/></clipPath><clipPath id="44679a7d72"><path d="M 714 392 L 720 392 L 720 399 L 714 399 Z M 714 392 " clip-rule="nonzero"/></clipPath><clipPath id="c763b894c7"><path d="M 714.082031 394.507812 L 717.28125 392.546875 L 719.976562 396.941406 L 716.78125 398.902344 Z M 714.082031 394.507812 " clip-rule="nonzero"/></clipPath><clipPath id="532245acf3"><path d="M 714.082031 394.507812 L 717.28125 392.546875 L 719.972656 396.933594 L 716.777344 398.894531 Z M 714.082031 394.507812 " clip-rule="nonzero"/></clipPath><clipPath id="37c23c6654"><path d="M 718 395 L 725 395 L 725 403 L 718 403 Z M 718 395 " clip-rule="nonzero"/></clipPath><clipPath id="ed2e5f69a0"><path d="M 718.449219 397.683594 L 721.644531 395.722656 L 724.339844 400.117188 L 721.144531 402.078125 Z M 718.449219 397.683594 " clip-rule="nonzero"/></clipPath><clipPath id="45f32e9384"><path d="M 718.449219 397.683594 L 721.644531 395.722656 L 724.335938 400.109375 L 721.140625 402.070312 Z M 718.449219 397.683594 " clip-rule="nonzero"/></clipPath><clipPath id="fe20dcb461"><path d="M 723 401 L 729 401 L 729 408 L 723 408 Z M 723 401 " clip-rule="nonzero"/></clipPath><clipPath id="4de95e3492"><path d="M 723.109375 403.308594 L 726.304688 401.347656 L 729 405.742188 L 725.804688 407.703125 Z M 723.109375 403.308594 " clip-rule="nonzero"/></clipPath><clipPath id="7cb7d1805d"><path d="M 723.109375 403.308594 L 726.304688 401.347656 L 728.996094 405.734375 L 725.800781 407.695312 Z M 723.109375 403.308594 " clip-rule="nonzero"/></clipPath><clipPath id="d051a23bf6"><path d="M 728 398 L 734 398 L 734 405 L 728 405 Z M 728 398 " clip-rule="nonzero"/></clipPath><clipPath id="a0ac7108f3"><path d="M 728.015625 400.132812 L 731.210938 398.171875 L 733.910156 402.566406 L 730.714844 404.527344 Z M 728.015625 400.132812 " clip-rule="nonzero"/></clipPath><clipPath id="0ba34957a8"><path d="M 728.015625 400.132812 L 731.210938 398.171875 L 733.90625 402.558594 L 730.710938 404.519531 Z M 728.015625 400.132812 " clip-rule="nonzero"/></clipPath><clipPath id="deb8450ece"><path d="M 728 403 L 734 403 L 734 410 L 728 410 Z M 728 403 " clip-rule="nonzero"/></clipPath><clipPath id="48cdd888f0"><path d="M 728.074219 405.179688 L 731.269531 403.214844 L 733.964844 407.613281 L 730.769531 409.574219 Z M 728.074219 405.179688 " clip-rule="nonzero"/></clipPath><clipPath id="a508fa0303"><path d="M 728.074219 405.179688 L 731.269531 403.214844 L 733.960938 407.605469 L 730.765625 409.566406 Z M 728.074219 405.179688 " clip-rule="nonzero"/></clipPath><clipPath id="e224c6096f"><path d="M 734 401 L 741 401 L 741 409 L 734 409 Z M 734 401 " clip-rule="nonzero"/></clipPath><clipPath id="bbf24f56c2"><path d="M 740.960938 405.609375 L 738.207031 408.160156 L 734.703125 404.375 L 737.457031 401.828125 Z M 740.960938 405.609375 " clip-rule="nonzero"/></clipPath><clipPath id="d4fa9e778a"><path d="M 740.960938 405.609375 L 738.207031 408.160156 L 734.710938 404.382812 L 737.460938 401.832031 Z M 740.960938 405.609375 " clip-rule="nonzero"/></clipPath><clipPath id="59910c22de"><path d="M 722 410 L 729 410 L 729 417 L 722 417 Z M 722 410 " clip-rule="nonzero"/></clipPath><clipPath id="8b7a552c44"><path d="M 728.070312 413.570312 L 725.320312 416.117188 L 722.773438 413.367188 L 725.523438 410.820312 Z M 728.070312 413.570312 " clip-rule="nonzero"/></clipPath><clipPath id="d885d6b799"><path d="M 728.070312 413.570312 L 725.320312 416.117188 L 722.773438 413.367188 L 725.523438 410.820312 Z M 728.070312 413.570312 " clip-rule="nonzero"/></clipPath><clipPath id="33275493a1"><path d="M 716 406 L 722 406 L 722 412 L 716 412 Z M 716 406 " clip-rule="nonzero"/></clipPath><clipPath id="ace5cdfe8c"><path d="M 721.390625 409.144531 L 718.640625 411.691406 L 716.09375 408.941406 L 718.84375 406.390625 Z M 721.390625 409.144531 " clip-rule="nonzero"/></clipPath><clipPath id="e783a80bc9"><path d="M 721.390625 409.144531 L 718.640625 411.691406 L 716.09375 408.941406 L 718.84375 406.390625 Z M 721.390625 409.144531 " clip-rule="nonzero"/></clipPath><clipPath id="b2e8dcf737"><path d="M 706 384 L 713 384 L 713 390 L 706 390 Z M 706 384 " clip-rule="nonzero"/></clipPath><clipPath id="c128b77efb"><path d="M 712.015625 386.941406 L 709.265625 389.492188 L 706.71875 386.738281 L 709.46875 384.191406 Z M 712.015625 386.941406 " clip-rule="nonzero"/></clipPath><clipPath id="8322179cf7"><path d="M 712.015625 386.941406 L 709.265625 389.492188 L 706.71875 386.738281 L 709.46875 384.191406 Z M 712.015625 386.941406 " clip-rule="nonzero"/></clipPath><clipPath id="aeba701ccf"><path d="M 693 390 L 700 390 L 700 398 L 693 398 Z M 693 390 " clip-rule="nonzero"/></clipPath><clipPath id="2023062dd3"><path d="M 693.464844 392.933594 L 696.660156 390.972656 L 699.359375 395.367188 L 696.160156 397.328125 Z M 693.464844 392.933594 " clip-rule="nonzero"/></clipPath><clipPath id="b3b4339483"><path d="M 693.464844 392.933594 L 696.660156 390.972656 L 699.355469 395.359375 L 696.15625 397.320312 Z M 693.464844 392.933594 " clip-rule="nonzero"/></clipPath><clipPath id="6ab8974639"><path d="M 696 381 L 703 381 L 703 388 L 696 388 Z M 696 381 " clip-rule="nonzero"/></clipPath><clipPath id="c58bc5f2a6"><path d="M 696.410156 382.976562 L 699.605469 381.015625 L 702.300781 385.410156 L 699.105469 387.371094 Z M 696.410156 382.976562 " clip-rule="nonzero"/></clipPath><clipPath id="08b6072e2c"><path d="M 696.410156 382.976562 L 699.605469 381.015625 L 702.300781 385.402344 L 699.101562 387.367188 Z M 696.410156 382.976562 " clip-rule="nonzero"/></clipPath><clipPath id="e3ad6f7685"><path d="M 709 377 L 716 377 L 716 384 L 709 384 Z M 709 377 " clip-rule="nonzero"/></clipPath><clipPath id="5df438f336"><path d="M 709.453125 379.28125 L 712.648438 377.316406 L 715.34375 381.710938 L 712.148438 383.675781 Z M 709.453125 379.28125 " clip-rule="nonzero"/></clipPath><clipPath id="add1ad648d"><path d="M 709.453125 379.28125 L 712.648438 377.316406 L 715.339844 381.707031 L 712.144531 383.667969 Z M 709.453125 379.28125 " clip-rule="nonzero"/></clipPath><clipPath id="3a3f46b289"><path d="M 714 382 L 721 382 L 721 389 L 714 389 Z M 714 382 " clip-rule="nonzero"/></clipPath><clipPath id="d7d4459292"><path d="M 714.960938 384.199219 L 718.160156 382.238281 L 720.855469 386.632812 L 717.660156 388.59375 Z M 714.960938 384.199219 " clip-rule="nonzero"/></clipPath><clipPath id="b51f91ed53"><path d="M 714.960938 384.199219 L 718.160156 382.238281 L 720.851562 386.628906 L 717.65625 388.589844 Z M 714.960938 384.199219 " clip-rule="nonzero"/></clipPath><clipPath id="9732b79010"><path d="M 728 387 L 735 387 L 735 395 L 728 395 Z M 728 387 " clip-rule="nonzero"/></clipPath><clipPath id="5d658d866c"><path d="M 728.800781 389.757812 L 732 387.796875 L 734.695312 392.191406 L 731.5 394.152344 Z M 728.800781 389.757812 " clip-rule="nonzero"/></clipPath><clipPath id="52c3c0a662"><path d="M 728.800781 389.757812 L 732 387.796875 L 734.691406 392.183594 L 731.496094 394.144531 Z M 728.800781 389.757812 " clip-rule="nonzero"/></clipPath><clipPath id="d2cbe62a0a"><path d="M 730 392 L 737 392 L 737 399 L 730 399 Z M 730 392 " clip-rule="nonzero"/></clipPath><clipPath id="853593db14"><path d="M 730.363281 394.507812 L 733.558594 392.546875 L 736.253906 396.941406 L 733.058594 398.902344 Z M 730.363281 394.507812 " clip-rule="nonzero"/></clipPath><clipPath id="93a456e9b4"><path d="M 730.363281 394.507812 L 733.558594 392.546875 L 736.25 396.933594 L 733.054688 398.894531 Z M 730.363281 394.507812 " clip-rule="nonzero"/></clipPath><clipPath id="c5e52bdb82"><path d="M 702 400 L 708 400 L 708 406 L 702 406 Z M 702 400 " clip-rule="nonzero"/></clipPath><clipPath id="2b6fc1d5a2"><path d="M 702.707031 402.171875 L 705.90625 400.210938 L 707.867188 403.40625 L 704.667969 405.367188 Z M 702.707031 402.171875 " clip-rule="nonzero"/></clipPath><clipPath id="2c64f4f1ca"><path d="M 702.707031 402.171875 L 705.90625 400.210938 L 707.867188 403.40625 L 704.667969 405.367188 Z M 702.707031 402.171875 " clip-rule="nonzero"/></clipPath><clipPath id="b3306cb8e5"><path d="M 721 409 L 727 409 L 727 415 L 721 415 Z M 721 409 " clip-rule="nonzero"/></clipPath><clipPath id="e5e9576262"><path d="M 721.390625 411.003906 L 724.589844 409.042969 L 726.550781 412.238281 L 723.351562 414.199219 Z M 721.390625 411.003906 " clip-rule="nonzero"/></clipPath><clipPath id="99dd78a1de"><path d="M 721.390625 411.003906 L 724.589844 409.042969 L 726.550781 412.238281 L 723.351562 414.199219 Z M 721.390625 411.003906 " clip-rule="nonzero"/></clipPath><clipPath id="8077bcc15e"><path d="M 732 404 L 738 404 L 738 410 L 732 410 Z M 732 404 " clip-rule="nonzero"/></clipPath><clipPath id="1d2d57d59d"><path d="M 732.539062 406.371094 L 735.738281 404.410156 L 737.699219 407.605469 L 734.5 409.566406 Z M 732.539062 406.371094 " clip-rule="nonzero"/></clipPath><clipPath id="de1d2170ff"><path d="M 732.539062 406.371094 L 735.738281 404.410156 L 737.699219 407.605469 L 734.5 409.566406 Z M 732.539062 406.371094 " clip-rule="nonzero"/></clipPath><clipPath id="b1095a16a5"><path d="M 740 397 L 748 397 L 748 403 L 740 403 Z M 740 397 " clip-rule="nonzero"/></clipPath><clipPath id="c4197fdd62"><path d="M 740.257812 402.605469 L 740.414062 397.859375 L 747.203125 398.085938 L 747.042969 402.832031 Z M 740.257812 402.605469 " clip-rule="nonzero"/></clipPath><clipPath id="7cfa5338e5"><path d="M 740.257812 402.605469 L 740.414062 397.859375 L 747.199219 398.085938 L 747.042969 402.832031 Z M 740.257812 402.605469 " clip-rule="nonzero"/></clipPath><clipPath id="fcdf71ef79"><path d="M 745 401 L 754 401 L 754 409 L 745 409 Z M 745 401 " clip-rule="nonzero"/></clipPath><clipPath id="5e7f087c50"><path d="M 745.261719 406.390625 L 746.886719 401.925781 L 753.269531 404.246094 L 751.644531 408.710938 Z M 745.261719 406.390625 " clip-rule="nonzero"/></clipPath><clipPath id="797ab291be"><path d="M 745.261719 406.390625 L 746.886719 401.925781 L 753.265625 404.246094 L 751.644531 408.707031 Z M 745.261719 406.390625 " clip-rule="nonzero"/></clipPath><clipPath id="f0e7d49da1"><path d="M 739 414 L 747 414 L 747 420 L 739 420 Z M 739 414 " clip-rule="nonzero"/></clipPath><clipPath id="55796d8702"><path d="M 739.933594 418.941406 L 740.09375 414.195312 L 746.878906 414.421875 L 746.722656 419.167969 Z M 739.933594 418.941406 " clip-rule="nonzero"/></clipPath><clipPath id="cd84b21329"><path d="M 739.933594 418.941406 L 740.09375 414.195312 L 746.875 414.421875 L 746.71875 419.167969 Z M 739.933594 418.941406 " clip-rule="nonzero"/></clipPath><clipPath id="af803cdc9d"><path d="M 739 407 L 743 407 L 743 412 L 739 412 Z M 739 407 " clip-rule="nonzero"/></clipPath><clipPath id="4f70ced239"><path d="M 739.035156 410.996094 L 739.160156 407.25 L 742.90625 407.371094 L 742.78125 411.121094 Z M 739.035156 410.996094 " clip-rule="nonzero"/></clipPath><clipPath id="252802caf7"><path d="M 739.035156 410.996094 L 739.160156 407.25 L 742.90625 407.371094 L 742.78125 411.121094 Z M 739.035156 410.996094 " clip-rule="nonzero"/></clipPath><clipPath id="92ba2bb474"><path d="M 742 406 L 747 406 L 747 411 L 742 411 Z M 742 406 " clip-rule="nonzero"/></clipPath><clipPath id="a91f2a2090"><path d="M 742.460938 409.976562 L 742.585938 406.226562 L 746.332031 406.351562 L 746.210938 410.097656 Z M 742.460938 409.976562 " clip-rule="nonzero"/></clipPath><clipPath id="87d0eccaf0"><path d="M 742.460938 409.976562 L 742.585938 406.226562 L 746.332031 406.351562 L 746.210938 410.097656 Z M 742.460938 409.976562 " clip-rule="nonzero"/></clipPath><clipPath id="1e0cb1cf34"><path d="M 745 409 L 750 409 L 750 414 L 745 414 Z M 745 409 " clip-rule="nonzero"/></clipPath><clipPath id="70c19aa9f5"><path d="M 745.261719 413.265625 L 745.386719 409.519531 L 749.136719 409.644531 L 749.011719 413.390625 Z M 745.261719 413.265625 " clip-rule="nonzero"/></clipPath><clipPath id="a56ec7517a"><path d="M 745.261719 413.265625 L 745.386719 409.519531 L 749.136719 409.644531 L 749.011719 413.390625 Z M 745.261719 413.265625 " clip-rule="nonzero"/></clipPath><clipPath id="5657e8929d"><path d="M 741 410 L 746 410 L 746 416 L 741 416 Z M 741 410 " clip-rule="nonzero"/></clipPath><clipPath id="614c380386"><path d="M 741.472656 414.148438 L 742.335938 410.5 L 745.984375 411.363281 L 745.121094 415.011719 Z M 741.472656 414.148438 " clip-rule="nonzero"/></clipPath><clipPath id="a4d2afa183"><path d="M 741.472656 414.148438 L 742.335938 410.5 L 745.984375 411.363281 L 745.121094 415.011719 Z M 741.472656 414.148438 " clip-rule="nonzero"/></clipPath><clipPath id="eef43562e6"><path d="M 732 413 L 738 413 L 738 418 L 732 418 Z M 732 413 " clip-rule="nonzero"/></clipPath><clipPath id="9d595450ea"><path d="M 732.542969 417.230469 L 733.140625 413.527344 L 737.335938 414.203125 L 736.738281 417.90625 Z M 732.542969 417.230469 " clip-rule="nonzero"/></clipPath><clipPath id="8519320cb1"><path d="M 732.542969 417.230469 L 733.140625 413.527344 L 737.320312 414.203125 L 736.722656 417.902344 Z M 732.542969 417.230469 " clip-rule="nonzero"/></clipPath><clipPath id="38b82bbef4"><path d="M 731 395 L 737 395 L 737 400 L 731 400 Z M 731 395 " clip-rule="nonzero"/></clipPath><clipPath id="47a3b7610d"><path d="M 731.882812 398.832031 L 732.480469 395.128906 L 736.675781 395.808594 L 736.078125 399.507812 Z M 731.882812 398.832031 " clip-rule="nonzero"/></clipPath><clipPath id="5517b91697"><path d="M 731.882812 398.832031 L 732.480469 395.128906 L 736.664062 395.804688 L 736.0625 399.507812 Z M 731.882812 398.832031 " clip-rule="nonzero"/></clipPath><clipPath id="47ac131230"><path d="M 737 393 L 746 393 L 746 402 L 737 402 Z M 737 393 " clip-rule="nonzero"/></clipPath><clipPath id="df046ea9e1"><path d="M 737.484375 395.464844 L 742.71875 393.199219 L 745.269531 399.085938 L 740.035156 401.351562 Z M 737.484375 395.464844 " clip-rule="nonzero"/></clipPath><clipPath id="4814ed6d45"><path d="M 737.484375 395.464844 L 742.71875 393.199219 L 745.265625 399.078125 L 740.03125 401.34375 Z M 737.484375 395.464844 " clip-rule="nonzero"/></clipPath></defs><g clip-path="url(#4a3346378f)"><g clip-path="url(#a505a0f891)"><path fill="#ffffff" d="M 469.894531 154.894531 L 970.105469 154.894531 L 970.105469 655.105469 L 469.894531 655.105469 Z M 469.894531 154.894531 " fill-opacity="1" fill-rule="nonzero"/></g></g><g clip-path="url(#717b71eedd)"><g clip-path="url(#20019b6f56)"><path stroke-linecap="butt" transform="matrix(0.75, 0, 0, 0.75, 469.894663, 154.894699)" fill="none" stroke-linejoin="miter" d="M 333.468592 -0.00022421 C 149.296707 -0.00022421 -0.00017511 149.296658 -0.00017511 333.468543 C -0.00017511 517.640427 149.296707 666.937309 333.468592 666.937309 C 517.640476 666.937309 666.937358 517.640427 666.937358 333.468543 C 666.937358 149.296658 517.640476 -0.00022421 333.468592 -0.00022421 Z M 333.468592 -0.00022421 " stroke="#cbcbcb" stroke-width="88" stroke-opacity="1" stroke-miterlimit="4"/></g></g><g fill="#cbcbcb" fill-opacity="1"><g transform="translate(461.486959, 514.28918)"><g><path d="M 161.359375 4.234375 C 134.160156 4.234375 110.191406 -1.414062 89.453125 -12.71875 C 68.722656 -24.03125 52.5 -41.03125 40.78125 -63.71875 C 29.070312 -86.40625 23.21875 -114.375 23.21875 -147.625 C 23.21875 -180.882812 29.070312 -208.859375 40.78125 -231.546875 C 52.5 -254.234375 68.722656 -271.226562 89.453125 -282.53125 C 110.191406 -293.84375 134.160156 -299.5 161.359375 -299.5 C 189.773438 -299.5 213.910156 -293.945312 233.765625 -282.84375 C 253.628906 -271.738281 267.800781 -254.804688 276.28125 -232.046875 L 233.671875 -206 L 228.609375 -206.203125 C 222.285156 -221.546875 213.703125 -232.550781 202.859375 -239.21875 C 192.023438 -245.882812 178.191406 -249.21875 161.359375 -249.21875 C 136.859375 -249.21875 117.738281 -241.101562 104 -224.875 C 90.269531 -208.65625 83.40625 -182.90625 83.40625 -147.625 C 83.40625 -112.488281 90.269531 -86.804688 104 -70.578125 C 117.738281 -54.359375 136.859375 -46.25 161.359375 -46.25 C 199.734375 -46.25 223.226562 -64.894531 231.84375 -102.1875 L 236.890625 -102.1875 L 279.90625 -79.765625 C 271.832031 -51.765625 258.035156 -30.765625 238.515625 -16.765625 C 218.992188 -2.765625 193.273438 4.234375 161.359375 4.234375 Z M 161.359375 4.234375 "/></g></g></g><g fill="#cbcbcb" fill-opacity="1"><g transform="translate(982.246709, 287.770823)"><g><path d="M -161.359375 -4.234375 C -134.160156 -4.234375 -110.191406 1.414062 -89.453125 12.71875 C -68.722656 24.03125 -52.5 41.03125 -40.78125 63.71875 C -29.070312 86.40625 -23.21875 114.375 -23.21875 147.625 C -23.21875 180.882812 -29.070312 208.859375 -40.78125 231.546875 C -52.5 254.234375 -68.722656 271.226562 -89.453125 282.53125 C -110.191406 293.84375 -134.160156 299.5 -161.359375 299.5 C -189.773438 299.5 -213.910156 293.945312 -233.765625 282.84375 C -253.628906 271.738281 -267.800781 254.804688 -276.28125 232.046875 L -233.671875 206 L -228.609375 206.203125 C -222.285156 221.546875 -213.703125 232.550781 -202.859375 239.21875 C -192.023438 245.882812 -178.191406 249.21875 -161.359375 249.21875 C -136.859375 249.21875 -117.738281 241.101562 -104 224.875 C -90.269531 208.65625 -83.40625 182.90625 -83.40625 147.625 C -83.40625 112.488281 -90.269531 86.804688 -104 70.578125 C -117.738281 54.359375 -136.859375 46.25 -161.359375 46.25 C -199.734375 46.25 -223.226562 64.894531 -231.84375 102.1875 L -236.890625 102.1875 L -279.90625 79.765625 C -271.832031 51.765625 -258.035156 30.765625 -238.515625 16.765625 C -218.992188 2.765625 -193.273438 -4.234375 -161.359375 -4.234375 Z M -161.359375 -4.234375 "/></g></g></g><g fill="#ffffff" fill-opacity="1"><g transform="translate(398.87988, 389.306288)"><g><path d="M 137.765625 -15.5625 C 114.628906 -12.332031 93.566406 -14.296875 74.578125 -21.453125 C 55.597656 -28.609375 39.78125 -41.140625 27.125 -59.046875 C 14.46875 -76.953125 6.164062 -100.050781 2.21875 -128.34375 C -1.726562 -156.625 -0.0703125 -181.109375 7.1875 -201.796875 C 14.445312 -222.492188 26.222656 -238.882812 42.515625 -250.96875 C 58.816406 -263.050781 78.535156 -270.707031 101.671875 -273.9375 C 125.835938 -277.320312 147.023438 -275.46875 165.234375 -268.375 C 183.453125 -261.289062 197.519531 -248.578125 207.4375 -230.234375 L 174.28125 -203.015625 L 169.953125 -202.578125 C 162.742188 -214.878906 154.132812 -223.21875 144.125 -227.59375 C 134.113281 -231.976562 121.953125 -233.164062 107.640625 -231.15625 C 86.796875 -228.25 71.492188 -219.078125 61.734375 -203.640625 C 51.984375 -188.210938 49.207031 -165.492188 53.40625 -135.484375 C 57.582031 -105.597656 66.472656 -84.570312 80.078125 -72.40625 C 93.691406 -60.238281 110.921875 -55.609375 131.765625 -58.515625 C 164.398438 -63.078125 182.171875 -81.734375 185.078125 -114.484375 L 189.375 -115.078125 L 228.625 -101.125 C 225.082031 -76.34375 215.835938 -56.835938 200.890625 -42.609375 C 185.941406 -28.378906 164.898438 -19.363281 137.765625 -15.5625 Z M 137.765625 -15.5625 "/></g></g></g><g fill="#ffffff" fill-opacity="1"><g transform="translate(1070.876253, 445.032294)"><g><path d="M -148.03125 -13.84375 C -123.03125 -12.164062 -101.351562 -5.492188 -83 6.171875 C -64.644531 17.835938 -50.785156 34.457031 -41.421875 56.03125 C -32.054688 77.601562 -28.398438 103.671875 -30.453125 134.234375 C -32.503906 164.796875 -39.613281 190.140625 -51.78125 210.265625 C -63.945312 230.390625 -79.90625 245.007812 -99.65625 254.125 C -119.40625 263.25 -141.78125 266.972656 -166.78125 265.296875 C -192.882812 263.535156 -214.71875 256.9375 -232.28125 245.5 C -249.851562 234.070312 -261.832031 217.640625 -268.21875 196.203125 L -227.453125 174.890625 L -222.84375 175.390625 C -217.96875 189.867188 -210.753906 200.507812 -201.203125 207.3125 C -191.648438 214.113281 -179.144531 218.035156 -163.6875 219.078125 C -141.164062 220.585938 -123.09375 214.304688 -109.46875 200.234375 C -95.84375 186.171875 -87.941406 162.929688 -85.765625 130.515625 C -83.597656 98.210938 -88.320312 74.1875 -99.9375 58.4375 C -111.5625 42.6875 -128.632812 34.054688 -151.15625 32.546875 C -186.414062 30.171875 -209.15625 45.851562 -219.375 79.59375 L -224.015625 79.28125 L -262.171875 56.03125 C -253.003906 30.789062 -239.019531 12.335938 -220.21875 0.671875 C -201.414062 -10.984375 -177.351562 -15.820312 -148.03125 -13.84375 Z M -148.03125 -13.84375 "/></g></g></g><g clip-path="url(#fedcc8943e)"><g clip-path="url(#4c65d71ae0)"><g clip-path="url(#63bb770454)"><path fill="#cbcbcb" d="M 702.367188 379.609375 L 753.3125 403.820312 L 746.757812 417.609375 L 695.8125 393.394531 Z M 702.367188 379.609375 " fill-opacity="1" fill-rule="nonzero"/></g></g></g><g clip-path="url(#464847fda4)"><g clip-path="url(#76a17e11fc)"><g clip-path="url(#c0e40bd69e)"><path fill="#ffffff" d="M 712.429688 381.84375 L 744.996094 397.320312 L 736.25 415.726562 L 703.679688 400.246094 Z M 712.429688 381.84375 " fill-opacity="1" fill-rule="nonzero"/></g></g></g><g clip-path="url(#ef7e00c1a2)"><g clip-path="url(#a24feb057a)"><g clip-path="url(#3caaa58c1e)"><path fill="#cbcbcb" d="M 705.894531 398.898438 L 710.785156 400.167969 L 709.84375 403.796875 L 704.949219 402.527344 Z M 705.894531 398.898438 " fill-opacity="1" fill-rule="nonzero"/></g></g></g><g clip-path="url(#75edd02098)"><g clip-path="url(#ed93e35486)"><g clip-path="url(#81104ea5b9)"><path fill="#cbcbcb" d="M 713.234375 388.507812 L 718.308594 392.78125 L 712.417969 399.777344 L 707.34375 395.503906 Z M 713.234375 388.507812 " fill-opacity="1" fill-rule="nonzero"/></g></g></g><g clip-path="url(#4cc12a6cc0)"><g clip-path="url(#4f53390e59)"><g clip-path="url(#2fff9c03dc)"><path fill="#cbcbcb" d="M 710.949219 380.789062 L 716.605469 377.316406 L 721.386719 385.113281 L 715.734375 388.582031 Z M 710.949219 380.789062 " fill-opacity="1" fill-rule="nonzero"/></g></g></g><g clip-path="url(#2c71383c4b)"><g clip-path="url(#0a910df691)"><g clip-path="url(#3b74c39bda)"><path fill="#cbcbcb" d="M 720.914062 389.25 L 725.804688 390.519531 L 724.863281 394.148438 L 719.972656 392.878906 Z M 720.914062 389.25 " fill-opacity="1" fill-rule="nonzero"/></g></g></g><g clip-path="url(#c00641efd7)"><g clip-path="url(#499d733ec3)"><g clip-path="url(#c47b955679)"><path fill="#cbcbcb" d="M 719.847656 395.984375 L 731.785156 399.085938 L 730.25 405 L 718.308594 401.898438 Z M 719.847656 395.984375 " fill-opacity="1" fill-rule="nonzero"/></g></g></g><g clip-path="url(#2f40c331bc)"><g clip-path="url(#fe4dcdb2cd)"><g clip-path="url(#c54e2be6c9)"><path fill="#cbcbcb" d="M 712.019531 403.308594 L 715.214844 401.347656 L 717.910156 405.742188 L 714.714844 407.703125 Z M 712.019531 403.308594 " fill-opacity="1" fill-rule="nonzero"/></g></g></g><g clip-path="url(#c0cc394b13)"><g clip-path="url(#069a527df0)"><g clip-path="url(#16dd7ff40a)"><path fill="#cbcbcb" d="M 718.3125 408.964844 L 720.738281 403.792969 L 727.261719 406.851562 L 724.835938 412.023438 Z M 718.3125 408.964844 " fill-opacity="1" fill-rule="nonzero"/></g></g></g><g clip-path="url(#ee837b094a)"><g clip-path="url(#206305494d)"><g clip-path="url(#28a8caabf5)"><path fill="#cbcbcb" d="M 734.859375 400.753906 L 739.933594 405.027344 L 734.042969 412.023438 L 728.96875 407.75 Z M 734.859375 400.753906 " fill-opacity="1" fill-rule="nonzero"/></g></g></g><g clip-path="url(#b7d2205489)"><g clip-path="url(#aae8c5544e)"><g clip-path="url(#d1bb892498)"><path fill="#cbcbcb" d="M 726.992188 410.820312 L 731.886719 412.089844 L 730.941406 415.722656 L 726.050781 414.449219 Z M 726.992188 410.820312 " fill-opacity="1" fill-rule="nonzero"/></g></g></g><g clip-path="url(#5b016a668e)"><g clip-path="url(#6c10084a86)"><g clip-path="url(#814c9305ad)"><path fill="#cbcbcb" d="M 727.582031 392.320312 L 733.648438 390.988281 L 734.453125 394.652344 L 728.386719 395.984375 Z M 727.582031 392.320312 " fill-opacity="1" fill-rule="nonzero"/></g></g></g><g clip-path="url(#a3569fef4c)"><g clip-path="url(#e6b44c5c73)"><g clip-path="url(#53031c3eaa)"><path fill="#ffffff" d="M 704.398438 392.953125 L 707.59375 390.988281 L 710.289062 395.382812 L 707.09375 397.347656 Z M 704.398438 392.953125 " fill-opacity="1" fill-rule="nonzero"/></g></g></g><g clip-path="url(#44679a7d72)"><g clip-path="url(#c763b894c7)"><g clip-path="url(#532245acf3)"><path fill="#ffffff" d="M 714.082031 394.507812 L 717.28125 392.546875 L 719.976562 396.941406 L 716.78125 398.902344 Z M 714.082031 394.507812 " fill-opacity="1" fill-rule="nonzero"/></g></g></g><g clip-path="url(#37c23c6654)"><g clip-path="url(#ed2e5f69a0)"><g clip-path="url(#45f32e9384)"><path fill="#ffffff" d="M 718.449219 397.683594 L 721.644531 395.722656 L 724.339844 400.117188 L 721.144531 402.078125 Z M 718.449219 397.683594 " fill-opacity="1" fill-rule="nonzero"/></g></g></g><g clip-path="url(#fe20dcb461)"><g clip-path="url(#4de95e3492)"><g clip-path="url(#7cb7d1805d)"><path fill="#ffffff" d="M 723.109375 403.308594 L 726.304688 401.347656 L 729 405.742188 L 725.804688 407.703125 Z M 723.109375 403.308594 " fill-opacity="1" fill-rule="nonzero"/></g></g></g><g clip-path="url(#d051a23bf6)"><g clip-path="url(#a0ac7108f3)"><g clip-path="url(#0ba34957a8)"><path fill="#ffffff" d="M 728.015625 400.132812 L 731.210938 398.171875 L 733.910156 402.566406 L 730.714844 404.527344 Z M 728.015625 400.132812 " fill-opacity="1" fill-rule="nonzero"/></g></g></g><g clip-path="url(#deb8450ece)"><g clip-path="url(#48cdd888f0)"><g clip-path="url(#a508fa0303)"><path fill="#ffffff" d="M 728.074219 405.179688 L 731.269531 403.214844 L 733.964844 407.613281 L 730.769531 409.574219 Z M 728.074219 405.179688 " fill-opacity="1" fill-rule="nonzero"/></g></g></g><g clip-path="url(#e224c6096f)"><g clip-path="url(#bbf24f56c2)"><g clip-path="url(#d4fa9e778a)"><path fill="#ffffff" d="M 740.960938 405.609375 L 738.207031 408.160156 L 734.703125 404.375 L 737.457031 401.828125 Z M 740.960938 405.609375 " fill-opacity="1" fill-rule="nonzero"/></g></g></g><g clip-path="url(#59910c22de)"><g clip-path="url(#8b7a552c44)"><g clip-path="url(#d885d6b799)"><path fill="#ffffff" d="M 728.070312 413.570312 L 725.320312 416.117188 L 722.773438 413.367188 L 725.523438 410.820312 Z M 728.070312 413.570312 " fill-opacity="1" fill-rule="nonzero"/></g></g></g><g clip-path="url(#33275493a1)"><g clip-path="url(#ace5cdfe8c)"><g clip-path="url(#e783a80bc9)"><path fill="#ffffff" d="M 721.390625 409.144531 L 718.640625 411.691406 L 716.09375 408.941406 L 718.84375 406.390625 Z M 721.390625 409.144531 " fill-opacity="1" fill-rule="nonzero"/></g></g></g><g clip-path="url(#b2e8dcf737)"><g clip-path="url(#c128b77efb)"><g clip-path="url(#8322179cf7)"><path fill="#ffffff" d="M 712.015625 386.941406 L 709.265625 389.492188 L 706.71875 386.738281 L 709.46875 384.191406 Z M 712.015625 386.941406 " fill-opacity="1" fill-rule="nonzero"/></g></g></g><g clip-path="url(#aeba701ccf)"><g clip-path="url(#2023062dd3)"><g clip-path="url(#b3b4339483)"><path fill="#ffffff" d="M 693.464844 392.933594 L 696.660156 390.972656 L 699.359375 395.367188 L 696.160156 397.328125 Z M 693.464844 392.933594 " fill-opacity="1" fill-rule="nonzero"/></g></g></g><g clip-path="url(#6ab8974639)"><g clip-path="url(#c58bc5f2a6)"><g clip-path="url(#08b6072e2c)"><path fill="#ffffff" d="M 696.410156 382.976562 L 699.605469 381.015625 L 702.300781 385.410156 L 699.105469 387.371094 Z M 696.410156 382.976562 " fill-opacity="1" fill-rule="nonzero"/></g></g></g><g clip-path="url(#e3ad6f7685)"><g clip-path="url(#5df438f336)"><g clip-path="url(#add1ad648d)"><path fill="#ffffff" d="M 709.453125 379.28125 L 712.648438 377.316406 L 715.34375 381.710938 L 712.148438 383.675781 Z M 709.453125 379.28125 " fill-opacity="1" fill-rule="nonzero"/></g></g></g><g clip-path="url(#3a3f46b289)"><g clip-path="url(#d7d4459292)"><g clip-path="url(#b51f91ed53)"><path fill="#ffffff" d="M 714.960938 384.199219 L 718.160156 382.238281 L 720.855469 386.632812 L 717.660156 388.59375 Z M 714.960938 384.199219 " fill-opacity="1" fill-rule="nonzero"/></g></g></g><g clip-path="url(#9732b79010)"><g clip-path="url(#5d658d866c)"><g clip-path="url(#52c3c0a662)"><path fill="#ffffff" d="M 728.800781 389.757812 L 732 387.796875 L 734.695312 392.191406 L 731.5 394.152344 Z M 728.800781 389.757812 " fill-opacity="1" fill-rule="nonzero"/></g></g></g><g clip-path="url(#d2cbe62a0a)"><g clip-path="url(#853593db14)"><g clip-path="url(#93a456e9b4)"><path fill="#ffffff" d="M 730.363281 394.507812 L 733.558594 392.546875 L 736.253906 396.941406 L 733.058594 398.902344 Z M 730.363281 394.507812 " fill-opacity="1" fill-rule="nonzero"/></g></g></g><g clip-path="url(#c5e52bdb82)"><g clip-path="url(#2b6fc1d5a2)"><g clip-path="url(#2c64f4f1ca)"><path fill="#ffffff" d="M 702.707031 402.171875 L 705.90625 400.210938 L 707.867188 403.40625 L 704.667969 405.367188 Z M 702.707031 402.171875 " fill-opacity="1" fill-rule="nonzero"/></g></g></g><g clip-path="url(#b3306cb8e5)"><g clip-path="url(#e5e9576262)"><g clip-path="url(#99dd78a1de)"><path fill="#ffffff" d="M 721.390625 411.003906 L 724.589844 409.042969 L 726.550781 412.238281 L 723.351562 414.199219 Z M 721.390625 411.003906 " fill-opacity="1" fill-rule="nonzero"/></g></g></g><g clip-path="url(#8077bcc15e)"><g clip-path="url(#1d2d57d59d)"><g clip-path="url(#de1d2170ff)"><path fill="#ffffff" d="M 732.539062 406.371094 L 735.738281 404.410156 L 737.699219 407.605469 L 734.5 409.566406 Z M 732.539062 406.371094 " fill-opacity="1" fill-rule="nonzero"/></g></g></g><g clip-path="url(#b1095a16a5)"><g clip-path="url(#c4197fdd62)"><g clip-path="url(#7cfa5338e5)"><path fill="#ffffff" d="M 740.257812 402.605469 L 740.414062 397.859375 L 747.203125 398.085938 L 747.042969 402.832031 Z M 740.257812 402.605469 " fill-opacity="1" fill-rule="nonzero"/></g></g></g><g clip-path="url(#fcdf71ef79)"><g clip-path="url(#5e7f087c50)"><g clip-path="url(#797ab291be)"><path fill="#ffffff" d="M 745.261719 406.390625 L 746.886719 401.925781 L 753.269531 404.246094 L 751.644531 408.710938 Z M 745.261719 406.390625 " fill-opacity="1" fill-rule="nonzero"/></g></g></g><g clip-path="url(#f0e7d49da1)"><g clip-path="url(#55796d8702)"><g clip-path="url(#cd84b21329)"><path fill="#ffffff" d="M 739.933594 418.941406 L 740.09375 414.195312 L 746.878906 414.421875 L 746.722656 419.167969 Z M 739.933594 418.941406 " fill-opacity="1" fill-rule="nonzero"/></g></g></g><g clip-path="url(#af803cdc9d)"><g clip-path="url(#4f70ced239)"><g clip-path="url(#252802caf7)"><path fill="#ffffff" d="M 739.035156 410.996094 L 739.160156 407.25 L 742.90625 407.371094 L 742.78125 411.121094 Z M 739.035156 410.996094 " fill-opacity="1" fill-rule="nonzero"/></g></g></g><g clip-path="url(#92ba2bb474)"><g clip-path="url(#a91f2a2090)"><g clip-path="url(#87d0eccaf0)"><path fill="#ffffff" d="M 742.460938 409.976562 L 742.585938 406.226562 L 746.332031 406.351562 L 746.210938 410.097656 Z M 742.460938 409.976562 " fill-opacity="1" fill-rule="nonzero"/></g></g></g><g clip-path="url(#1e0cb1cf34)"><g clip-path="url(#70c19aa9f5)"><g clip-path="url(#a56ec7517a)"><path fill="#ffffff" d="M 745.261719 413.265625 L 745.386719 409.519531 L 749.136719 409.644531 L 749.011719 413.390625 Z M 745.261719 413.265625 " fill-opacity="1" fill-rule="nonzero"/></g></g></g><g clip-path="url(#5657e8929d)"><g clip-path="url(#614c380386)"><g clip-path="url(#a4d2afa183)"><path fill="#ffffff" d="M 741.472656 414.148438 L 742.335938 410.5 L 745.984375 411.363281 L 745.121094 415.011719 Z M 741.472656 414.148438 " fill-opacity="1" fill-rule="nonzero"/></g></g></g><g clip-path="url(#eef43562e6)"><g clip-path="url(#9d595450ea)"><g clip-path="url(#8519320cb1)"><path fill="#cbcbcb" d="M 732.542969 417.230469 L 733.140625 413.527344 L 737.320312 414.203125 L 736.722656 417.902344 Z M 732.542969 417.230469 " fill-opacity="1" fill-rule="nonzero"/></g></g></g><g clip-path="url(#38b82bbef4)"><g clip-path="url(#47a3b7610d)"><g clip-path="url(#5517b91697)"><path fill="#cbcbcb" d="M 731.882812 398.832031 L 732.480469 395.128906 L 736.660156 395.804688 L 736.0625 399.507812 Z M 731.882812 398.832031 " fill-opacity="1" fill-rule="nonzero"/></g></g></g><g clip-path="url(#47ac131230)"><g clip-path="url(#df046ea9e1)"><g clip-path="url(#4814ed6d45)"><path fill="#cbcbcb" d="M 737.484375 395.464844 L 742.71875 393.199219 L 745.269531 399.085938 L 740.035156 401.351562 Z M 737.484375 395.464844 " fill-opacity="1" fill-rule="nonzero"/></g></g></g></svg>